<svg xmlns="http://www.w3.org/2000/svg" viewBox="0 0 48 48" fill="none">
  <defs>
    <linearGradient id="grad" x1="0%" y1="0%" x2="100%" y2="100%">
      <stop offset="0%" style="stop-color:#10b981;stop-opacity:1" />
      <stop offset="100%" style="stop-color:#22d3ee;stop-opacity:1" />
    </linearGradient>
  </defs>
  <!-- Shield shape -->
  <path d="M24 4L6 12v12c0 11.1 7.7 21.5 18 24 10.3-2.5 18-12.9 18-24V12L24 4z" fill="url(#grad)" opacity="0.15" stroke="url(#grad)" stroke-width="1.5"/>
  <!-- Eraser/sweep icon -->
  <path d="M16 28l-4 4a2 2 0 000 2.83l2.17 2.17a2 2 0 002.83 0L21 33" stroke="url(#grad)" stroke-width="2" stroke-linecap="round" stroke-linejoin="round" fill="none"/>
  <path d="M21 33l11-11a2 2 0 000-2.83l-4.17-4.17a2 2 0 00-2.83 0L16 28l5 5z" stroke="url(#grad)" stroke-width="2" stroke-linecap="round" stroke-linejoin="round" fill="url(#grad)" opacity="0.3"/>
  <!-- Sparkle dots -->
  <circle cx="34" cy="16" r="1.5" fill="#22d3ee"/>
  <circle cx="38" cy="20" r="1" fill="#10b981"/>
  <circle cx="36" cy="12" r="1" fill="#22d3ee" opacity="0.6"/>
</svg>
