<svg xmlns="http://www.w3.org/2000/svg" viewBox="0 0 32 32" fill="none">
  <defs>
    <linearGradient id="g" x1="0%" y1="0%" x2="100%" y2="100%">
      <stop offset="0%" style="stop-color:#10b981" />
      <stop offset="100%" style="stop-color:#22d3ee" />
    </linearGradient>
  </defs>
  <path d="M16 2L4 8v8c0 7.4 5.1 14.3 12 16 6.9-1.7 12-8.6 12-16V8L16 2z" fill="url(#g)" opacity="0.2" stroke="url(#g)" stroke-width="1.5"/>
  <path d="M11 19l-2.5 2.5a1.5 1.5 0 000 2.12l1.38 1.38a1.5 1.5 0 002.12 0L15 22" stroke="url(#g)" stroke-width="1.5" stroke-linecap="round" fill="none"/>
  <path d="M15 22l7-7a1.5 1.5 0 000-2.12L19.88 10.75a1.5 1.5 0 00-2.12 0L11 19l4 3z" fill="url(#g)" opacity="0.4" stroke="url(#g)" stroke-width="1.5" stroke-linecap="round"/>
</svg>
